<?xml version="1.0" standalone="yes"?>
<svg xmlns="http://www.w3.org/2000/svg" width="800" height="800" fill="none">
<path fill="none"  d="M0 0L0 800L800 800L800 0L0 0z"/>
<path fill="#ffffff" d="M381 7.42438C356.113 10.6921 331.619 12.0477 307 17.8843C243.106 33.0316 183.631 65.1857 135 109.17C99.3023 141.456 70.2335 181.039 48.7531 224C-47.853 417.212 36.675 663.086 234 753.691C304.395 786.015 381.541 796.017 458 785.718C651.921 759.595 799.468 578.286 790.961 384C783.298 209.012 658.275 54.6271 486 16.5756C453.034 9.29419 414.774 2.98981 381 7.42438z"/>
<path fill="rgba(0,0,0,0.5)"  d="M183 129L183 130C212.103 130.019 218 153.887 218 178C225.749 177.667 232.55 176.212 240 179.529C261.168 188.955 266.743 225.228 273.333 245C290.133 295.399 302.04 347.17 313.424 399C319.006 424.414 326.667 450.192 330 476L331 476C340.679 457.844 346.999 437.288 354.053 418C373.327 365.302 386.69 310.651 405.947 258C414.208 235.412 426.807 193.308 453 185.789C463.609 182.744 474.47 189.465 480.25 198.004C490.29 212.837 491.878 234.742 494.753 252C501.903 294.914 505.553 338.228 513.803 381C522.327 425.186 536.242 469.415 542 514L543 514C550.173 488.91 562.762 464.287 572.399 440C591.787 391.139 611.042 341.761 627.997 292C640.071 256.563 641.426 210.807 669 183C651.056 151.951 614.756 125.82 585 106.947C496.068 50.5406 383.383 37.3213 284 72.6921C246.915 85.8909 214.48 105.668 183 129M152 157C61.7874 251.259 29.7614 390.565 73.6921 514C88.6859 556.129 112.204 590.703 139 626L140 626C133.906 578.815 141.663 528.419 144.91 481C149.443 414.808 149.389 348.353 151.015 282C151.732 252.709 152 223.364 152 194C152 183.62 155.396 166.468 152 157M702 234C692.096 275.794 674.013 317.468 657.424 357C635.718 408.728 614.449 460.696 594.189 513C586.106 533.867 577.507 554.603 568.306 575C563.222 586.269 556.191 597.256 543.001 599.674C507.499 606.182 500.072 564.591 493.151 539C482.871 500.987 478.657 460.675 471.197 422C463.663 382.946 452.33 340.897 452 301L451 301C439.758 355.32 417.245 408.224 395.579 459C383.899 486.373 366.202 519.027 363.34 549C362.696 555.75 365.283 562.961 365 570C386.908 567.047 412.877 549.198 435 554.504C464.66 561.618 467.027 601.611 443 616.532C419.565 631.086 388.574 636.555 362 642.424C301.745 655.733 236.517 667.815 175 660C183.469 671.773 199.777 681.213 212 688.808C241.602 707.201 272.412 721.62 306 731.14C427.477 765.572 564.468 728.797 650.911 636C689.751 594.304 717.033 544.614 732.709 490C751.168 425.689 748.935 354.431 727.999 291C723.375 276.988 717.845 263.402 711.691 250C709.311 244.816 706.864 237.186 702 234M218 257L217 306L214.961 381L209.91 491L203 595L309 584L309 583C299.186 575.755 299.532 565.749 297.112 555C292.602 534.973 287.72 515.01 283.119 495C269.893 437.481 257.558 380.418 240.025 324C235.458 309.302 230.593 294.697 226.025 280C223.701 272.519 222.193 263.663 218 257z"/>
</svg>
